<?xml version="1.0" encoding="utf-8"?>
<!-- Generator: Adobe Illustrator 21.1.0, SVG Export Plug-In . SVG Version: 6.00 Build 0)  -->
<svg version="1.1" id="Layer_1" xmlns="http://www.w3.org/2000/svg" xmlns:xlink="http://www.w3.org/1999/xlink" x="0px" y="0px"
	 viewBox="0 0 226 292" style="enable-background:new 0 0 226 292;" xml:space="preserve">
<style type="text/css">
	.st0{fill:#FFFDFD;}
	.st1{fill:none;stroke:#000000;stroke-miterlimit:10;}
	.st2{fill:#1C3144;}
	.st3{fill:none;stroke:#705050;stroke-width:6;stroke-miterlimit:10;}
	.st4{fill:none;stroke:#1C3144;stroke-width:6;stroke-miterlimit:10;}
	.st5{fill:none;}
	.st6{opacity:0.72;fill:#FFFFFF;enable-background:new    ;}
	.st7{font-family:'AzoSans-Light';}
	.st8{font-size:28px;}
	.st9{font-family:'AzoSans-Regular';}
	.st10{font-size:32px;}
	.st11{opacity:0.18;fill:#020202;enable-background:new    ;}
</style>
<g>
	<g>
		<path class="st0" d="M181.7,244H38.3C26,244,16,234,16,221.7V33.3C16,21,26,11,38.3,11h143.4C194,11,204,21,204,33.3v188.4
			C204,234,194,244,181.7,244z"/>
	</g>
</g>
<path class="st1" d="M204.5,197.3v-0.6"/>
<path class="st1" d="M16.5,215.3"/>
<g>
	<g>
		<path class="st2" d="M204.2,201.3v2.9c0,6.1-5,11.1-11.1,11.1l-177.4,0.3l-0.4-209l164-0.3c13.5,0,24.5,10.9,24.5,24.4
			L204.2,201.3z"/>
	</g>
</g>
<path class="st3" d="M191,243.1"/>
<path class="st4" d="M17,241h173.4c2.9,0,5.8-1.1,8-3l5.6-5"/>
<rect x="16" y="209" class="st2" width="9" height="35"/>
<polygon class="st5" points="209,144 25,144 25,70.3 209,70.3 209,131 "/>
<text transform="matrix(1 0 0 1 95.9443 91.7251)" class="st6 st7 st8">MY</text>
<text transform="matrix(1 0 0 1 55.1443 124.7251)" class="st6 st9 st10">RECIPES</text>
<rect x="16" y="7" class="st11" width="38" height="237"/>
</svg>
