<?xml version="1.0" encoding="utf-8"?>
<!-- Generator: Adobe Illustrator 21.1.0, SVG Export Plug-In . SVG Version: 6.00 Build 0)  -->
<svg version="1.1" id="Layer_1" xmlns="http://www.w3.org/2000/svg" xmlns:xlink="http://www.w3.org/1999/xlink" x="0px" y="0px"
	 viewBox="0 0 300 300" style="enable-background:new 0 0 300 300;" xml:space="preserve">
<style type="text/css">
	.st0{fill:#FFFDFD;}
	.st1{fill:none;stroke:#000000;stroke-miterlimit:10;}
	.st2{fill:#1C3144;}
	.st3{fill:none;stroke:#705050;stroke-width:6;stroke-miterlimit:10;}
	.st4{fill:none;stroke:#1C3144;stroke-width:6;stroke-miterlimit:10;}
	.st5{fill:none;}
	.st6{opacity:0.72;fill:#FFFFFF;}
	.st7{font-family:'AzoSans-Light';}
	.st8{font-size:28px;}
	.st9{font-family:'AzoSans-Regular';}
	.st10{font-size:32px;}
	.st11{opacity:0.18;fill:#020202;}
</style>
<g>
	
		<image style="overflow:visible;opacity:0.24;" width="212" height="257" xlink:href="7422EB5F0FE86D00.png"  transform="matrix(1 0 0 1 32 28)">
	</image>
	<g>
		<path class="st0" d="M218.7,263H75.3C63,263,53,253,53,240.7V52.3C53,40,63,30,75.3,30h143.4C231,30,241,40,241,52.3v188.4
			C241,253,231,263,218.7,263z"/>
	</g>
</g>
<path class="st1" d="M241.5,216.3v-0.6"/>
<path class="st1" d="M53.5,234.3"/>
<g>
	
		<image style="overflow:visible;opacity:0.24;" width="214" height="234" xlink:href="7422EB5F0FE86D18.png"  transform="matrix(1 0 0 1 31 23)">
	</image>
	<g>
		<path class="st2" d="M241.2,220.3l0,2.9c0,6.1-5,11.1-11.1,11.1l-177.4,0.3l-0.4-209l164-0.3c13.5,0,24.5,10.9,24.5,24.4
			L241.2,220.3z"/>
	</g>
</g>
<path class="st3" d="M228,262.1"/>
<path class="st4" d="M54,260h173.4c2.9,0,5.8-1.1,8-3l5.6-5"/>
<rect x="53" y="228" class="st2" width="9" height="35"/>
<polygon class="st5" points="246,163 62,163 62,89.3 246,89.3 246,150 "/>
<text transform="matrix(1 0 0 1 132.9443 110.7251)"><tspan x="0" y="0" class="st6 st7 st8">MY</tspan><tspan x="-40.8" y="33" class="st6 st9 st10">RECIPES</tspan></text>
<rect x="53" y="26" class="st11" width="38" height="237"/>
</svg>
